<?xml version="1.0" encoding="UTF-8" standalone="no"?>
<!-- Generator: Adobe Illustrator 18.0.0, SVG Export Plug-In . SVG Version: 6.00 Build 0)  -->

<svg
   version="1.1"
   id="Layer_2_1_"
   x="0px"
   y="0px"
   viewBox="0 0 307.99999 62.000001"
   enable-background="new 0 0 841.9 595.3"
   xml:space="preserve"
   sodipodi:docname="logo.svg"
   width="308"
   height="62"
   inkscape:version="1.1 (ce6663b3b7, 2021-05-25)"
   xmlns:inkscape="http://www.inkscape.org/namespaces/inkscape"
   xmlns:sodipodi="http://sodipodi.sourceforge.net/DTD/sodipodi-0.dtd"
   xmlns="http://www.w3.org/2000/svg"
   xmlns:svg="http://www.w3.org/2000/svg"><defs
   id="defs15" /><sodipodi:namedview
   id="namedview13"
   pagecolor="#505050"
   bordercolor="#eeeeee"
   borderopacity="1"
   inkscape:pageshadow="0"
   inkscape:pageopacity="0"
   inkscape:pagecheckerboard="0"
   showgrid="false"
   inkscape:zoom="1.5958341"
   inkscape:cx="142.55868"
   inkscape:cy="63.91642"
   inkscape:window-width="1366"
   inkscape:window-height="731"
   inkscape:window-x="0"
   inkscape:window-y="0"
   inkscape:window-maximized="1"
   inkscape:current-layer="Layer_2_1_"
   inkscape:snap-page="true"
   inkscape:object-paths="true" />

<g
   aria-label="Watchr"
   id="text1985"
   style="font-size:63.4608px;line-height:1.25;font-family:'Roboto Mono';-inkscape-font-specification:'Roboto Mono';letter-spacing:0px;word-spacing:0px;fill:#ffffff;stroke-width:1.58653"><path
     d="m 79.784605,54.602299 h 5.887477 l 5.515636,-32.071254 0.340854,-1.921177 0.309867,1.89019 5.484649,32.102241 h 5.856492 l 5.48465,-45.1166629 h -5.42268 L 99.987946,40.534328 99.802026,42.393532 99.461172,40.565315 93.976523,9.4856361 H 88.987661 L 83.533998,40.534328 83.193145,42.393532 83.007224,40.596302 79.753619,9.4856361 h -5.453663 z"
     id="path5299" /><path
     d="m 137.54385,54.602299 h 5.98043 v -0.495788 q -0.55776,-1.394402 -0.86762,-3.253605 -0.30987,-1.89019 -0.30987,-3.563473 V 31.703114 q 0,-2.819792 -1.02256,-4.926889 -1.02256,-2.107097 -2.78881,-3.532486 -1.79723,-1.394402 -4.24518,-2.07611 -2.44795,-0.712694 -5.29873,-0.712694 -3.12966,0 -5.60859,0.867628 -2.44795,0.867628 -4.15222,2.26203 -1.73526,1.425389 -2.66486,3.191632 -0.89862,1.766243 -0.9296,3.59446 h 5.76353 q 0,-1.053549 0.49578,-2.014137 0.52678,-0.991575 1.45638,-1.70427 0.9296,-0.712694 2.26203,-1.146508 1.36342,-0.433814 3.06769,-0.433814 1.82821,0 3.28459,0.4648 1.48736,0.464801 2.50992,1.301443 1.02256,0.867628 1.58033,2.07611 0.55776,1.208482 0.55776,2.726831 v 2.633871 h -6.25932 q -3.5015,0 -6.35228,0.681708 -2.81979,0.681708 -4.83393,2.045123 -2.01413,1.394403 -3.12966,3.470513 -1.08453,2.07611 -1.08453,4.833928 0,2.107097 0.80565,3.935313 0.83665,1.79723 2.355,3.098672 1.48736,1.332429 3.62544,2.107097 2.16907,0.774668 4.83393,0.774668 1.6423,0 3.09867,-0.340854 1.45638,-0.340854 2.75782,-0.929601 1.27045,-0.588748 2.324,-1.363416 1.08454,-0.774668 1.95217,-1.642296 0.093,1.053548 0.27888,2.045123 0.2169,0.960589 0.55776,1.61131 z m -10.13266,-4.369128 q -1.67328,0 -2.94374,-0.433814 -1.27045,-0.433814 -2.10709,-1.208482 -0.83665,-0.743681 -1.27046,-1.797229 -0.40283,-1.053549 -0.40283,-2.293018 0,-1.301442 0.4648,-2.324004 0.49579,-1.022561 1.42539,-1.766242 1.30144,-1.053549 3.5015,-1.549336 2.23105,-0.526775 5.20577,-0.526775 h 5.32972 v 6.786092 q -0.49579,0.991575 -1.36342,1.921176 -0.86763,0.898615 -2.04512,1.61131 -1.20848,0.712694 -2.66486,1.146508 -1.45638,0.433814 -3.12966,0.433814 z"
     id="path5301" /><path
     d="m 167.16715,12.956149 h -5.76353 v 8.11852 h -8.80023 v 4.431101 h 8.80023 v 18.22019 q 0,3.098672 0.80565,5.298729 0.83665,2.169071 2.26203,3.532486 1.42539,1.394403 3.34657,2.045124 1.95216,0.619734 4.18321,0.619734 1.33243,0 2.66486,-0.123947 1.36341,-0.123947 2.57189,-0.37184 1.20849,-0.216907 2.23105,-0.526775 1.02256,-0.340854 1.73525,-0.774668 l -0.80565,-4.05926 q -0.52678,0.123947 -1.36342,0.309867 -0.80565,0.154934 -1.73525,0.309868 -0.96059,0.154933 -1.95217,0.27888 -0.99157,0.09296 -1.92117,0.09296 -1.27046,0 -2.41697,-0.309867 -1.11552,-0.309867 -1.98315,-1.084535 -0.86763,-0.743681 -1.36341,-2.014137 -0.49579,-1.270455 -0.49579,-3.222619 V 25.50577 h 12.76653 v -4.431101 h -12.76653 z"
     id="path5303" /><path
     d="m 205.96252,50.574025 q -2.69584,0 -4.52406,-1.053548 -1.79723,-1.084535 -2.88176,-2.819792 -1.11552,-1.704269 -1.61131,-3.842353 -0.4648,-2.16907 -0.4648,-4.369127 v -1.301442 q 0,-2.169071 0.4648,-4.307154 0.49579,-2.138084 1.61131,-3.87334 1.11552,-1.70427 2.91275,-2.757818 1.82822,-1.084535 4.49307,-1.084535 1.73526,0 3.22262,0.588748 1.51835,0.588747 2.60289,1.611309 1.08453,1.022562 1.70427,2.385977 0.65072,1.332429 0.6817,2.850778 h 5.42268 q 0,-2.540911 -1.02256,-4.771954 -1.02256,-2.231044 -2.81979,-3.87334 -1.82822,-1.61131 -4.33814,-2.540911 -2.47894,-0.960588 -5.45367,-0.960588 -3.81136,0 -6.66214,1.363415 -2.85078,1.363416 -4.74097,3.656433 -1.92118,2.324004 -2.88176,5.360702 -0.96059,3.036699 -0.96059,6.352278 v 1.301442 q 0,3.346566 0.96059,6.383264 0.96058,3.005712 2.88176,5.298729 1.89019,2.324004 4.74097,3.687419 2.85078,1.363416 6.66214,1.363416 2.66486,0 5.11281,-0.898615 2.44795,-0.929601 4.33814,-2.478937 1.89019,-1.518349 3.00571,-3.532486 1.14651,-2.045124 1.1775,-4.276167 H 214.174 q -0.031,1.394402 -0.74368,2.602884 -0.6817,1.177495 -1.82821,2.045123 -1.14651,0.898615 -2.63387,1.394403 -1.45638,0.495787 -3.00572,0.495787 z"
     id="path5305" /><path
     d="M 235.49286,26.063531 V 7.0066986 h -5.73254 V 54.602299 h 5.73254 V 30.246738 q 0.61974,-0.991575 1.3944,-1.79723 0.80566,-0.836641 1.73526,-1.456376 1.1775,-0.805654 2.5719,-1.239468 1.3944,-0.433815 2.94374,-0.433815 1.89019,-0.03099 3.34656,0.526775 1.45638,0.526774 2.41697,1.611309 0.89861,0.991575 1.36341,2.509924 0.4648,1.487363 0.4648,3.470513 v 21.163929 h 5.73255 V 33.500343 q 0,-3.377552 -0.83665,-5.825503 -0.80565,-2.478937 -2.324,-4.090247 -1.51835,-1.611309 -3.68742,-2.35499 -2.13808,-0.774668 -4.77195,-0.774668 -2.01414,0.03099 -3.81137,0.588747 -1.76624,0.557761 -3.25361,1.642296 -0.9296,0.650721 -1.76624,1.51835 -0.83664,0.836641 -1.51835,1.859203 z"
     id="path5307" /><path
     d="m 289.81257,20.454935 q -3.65643,0 -6.53819,1.611309 -2.85078,1.580323 -4.8959,4.338141 l -0.031,-0.836642 -0.2479,-4.493074 h -5.45366 v 33.52763 h 5.76353 V 33.097516 q 0.55776,-1.549336 1.3944,-2.788805 0.86763,-1.270455 2.01414,-2.138083 1.27046,-0.991575 2.97473,-1.487363 1.70427,-0.526774 3.81136,-0.526774 1.6423,0 3.12966,0.18592 1.51835,0.154934 3.19163,0.526774 l 0.77467,-5.608596 q -0.86763,-0.37184 -2.60288,-0.588747 -1.70427,-0.216907 -3.2846,-0.216907 z"
     style="fill:#3182ce"
     id="path5309" /></g><path
   d="M 62.000001,31 C 62.000001,13.87911 48.120891,0 31,0 13.87911,0 0,13.87911 0,31 0,48.12089 13.87911,62 31,62 H 62.000001 V 56.833334 H 48.114585 C 56.781618,51.095256 61.996216,41.395141 62.000001,31 Z M 46.184653,51.900023 c -3.462526,2.515219 -8.310059,1.748294 -10.825278,-1.715494 -2.515219,-3.462522 -1.748291,-8.308796 1.714235,-10.825274 3.463785,-2.515219 8.310059,-1.748294 10.825275,1.715494 2.516481,3.462523 1.748291,8.308796 -1.714232,10.825274 z M 45.803711,18.041708 c 4.070516,-1.323202 8.442504,0.904419 9.765708,4.974935 1.321939,4.071777 -0.905682,8.443766 -4.976198,9.765705 -4.070515,1.323203 -8.442504,-0.904418 -9.765705,-4.974933 -1.321941,-4.070517 0.90568,-8.443767 4.976195,-9.765707 z M 31,5.166667 c 4.279906,0 7.75,3.470093 7.75,7.75 0,4.279907 -3.470094,7.75 -7.75,7.75 -4.27991,0 -7.75,-3.470093 -7.75,-7.75 0,-4.279907 3.47009,-7.75 7.75,-7.75 z M 6.43058,23.016643 c 1.3232,-4.070516 5.69519,-6.298137 9.76571,-4.976197 4.07052,1.323202 6.29814,5.695191 4.9762,9.765707 -1.32321,4.070515 -5.69519,6.298137 -9.76571,4.976195 C 7.33626,31.460409 5.10864,27.08842 6.43058,23.016643 Z m 20.21005,27.167886 c -2.51522,3.463788 -7.36276,4.230713 -10.82528,1.715494 -3.46253,-2.516478 -4.23071,-7.362751 -1.71423,-10.825274 2.51521,-3.462526 7.36275,-4.230713 10.82527,-1.714235 3.46253,2.515219 4.229454,7.361493 1.71424,10.824015 z M 28.41667,31 c 0,-1.426636 1.156693,-2.583334 2.58333,-2.583334 1.426637,0 2.583334,1.156698 2.583334,2.583334 0,1.426637 -1.156697,2.583335 -2.583334,2.583335 -1.426637,0 -2.58333,-1.156698 -2.58333,-2.583335 z m 0,0"
   id="path2812"
   style="stroke-width:0.322916;fill:#3182ce;fill-opacity:1" /></svg>
